<?xml version="1.0" encoding="utf-8"?>
<!-- Generator: Adobe Illustrator 26.3.1, SVG Export Plug-In . SVG Version: 6.00 Build 0)  -->
<svg version="1.1" id="图层_1" xmlns="http://www.w3.org/2000/svg" xmlns:xlink="http://www.w3.org/1999/xlink" x="0px" y="0px"
	 viewBox="0 0 24 24" style="enable-background:new 0 0 24 24;" xml:space="preserve">
<style type="text/css">
	.st0{fill:#D60F00;}
	.st1{fill:#FFFFFF;}
</style>
<g>
	<path class="st0" d="M10.6,21.2l-7.8-7.8c-0.8-0.8-0.8-2.1,0-2.8l7.8-7.8c0.8-0.8,2.1-0.8,2.8,0l7.8,7.8c0.8,0.8,0.8,2.1,0,2.8
		l-7.8,7.8C12.6,22,11.4,22,10.6,21.2z"/>
	<path class="st1" d="M17.3,11.2l-0.8-4.4c0-0.1-0.1-0.2-0.2-0.2c-0.1,0-0.2,0-0.3,0l-4,1.9L8,6.6c-0.1,0-0.2,0-0.3,0
		c-0.1,0-0.1,0.1-0.2,0.2l-0.8,4.4c0,0,0,0.1,0,0.1l0.6,2.5c0,0,0,0,0,0c0,0,0,0,0,0l0.2,0.7c0,0.1,0.1,0.1,0.1,0.2l4.2,2.7l0,0
		c0,0,0,0,0,0l0,0l0,0c0,0,0.1,0,0.2,0c0.1,0,0.1,0,0.2,0l1-0.6c0,0,0.1-0.1,0.1-0.1l3.1-1.9c0.1,0,0.1-0.1,0.1-0.2l0.2-0.7
		c0,0,0,0,0,0c0,0,0,0,0,0l0.6-2.5C17.3,11.3,17.3,11.2,17.3,11.2z M14.8,13.8c-0.1,0.1-0.2,0.2-0.1,0.3c0,0.3,0.1,0.6,0.1,0.9
		L13,16.1l-0.6-0.5c0.1-0.5,0.3-1.5,1.1-2.4c0.2-0.2,0.4-0.5,0.7-0.7c0.1-0.1,0.2-0.1,0.3-0.2c0.8-0.5,1.6-0.8,2.2-0.8l-0.4,1.5
		C15.7,13.3,15.2,13.5,14.8,13.8z M9.3,15c0-0.3,0.1-0.6,0.1-0.9c0-0.1,0-0.2-0.1-0.3c-0.5-0.2-1-0.5-1.4-0.7l-0.4-1.5
		c0.6,0.1,1.4,0.3,2.2,0.9c0.1,0.1,0.2,0.1,0.3,0.2c0.2,0.2,0.5,0.4,0.7,0.7c0.7,0.9,1,1.9,1.1,2.4l-0.7,0.5L9.3,15z M11.6,12.3
		l0.3,0.2c0.1,0,0.1,0,0.2,0l0.3-0.2l0.4,0.7c-0.4,0.5-0.7,1-0.8,1.5c-0.2-0.5-0.4-1-0.8-1.5L11.6,12.3z M13.3,12.5l-1-1.8
		c-0.1-0.1-0.1-0.2-0.3-0.2c-0.1,0-0.2,0.1-0.3,0.2l-1,1.8c-0.1-0.1-0.3-0.3-0.5-0.4C10.2,12,10.1,12,10,11.9
		c-0.6-0.4-1.3-0.7-1.8-0.8L12,9.2l3.9,1.8c-0.6,0.1-1.2,0.4-1.8,0.8c-0.1,0.1-0.2,0.2-0.3,0.2C13.6,12.2,13.4,12.4,13.3,12.5z
		 M12.7,8.9l3.2-1.5l0.6,3.4L12.7,8.9z M8.1,7.3l3.3,1.6l-3.9,1.9L8.1,7.3z"/>
</g>
</svg>
