<?xml version="1.0" encoding="utf-8"?>
<!-- Generator: Adobe Illustrator 26.3.1, SVG Export Plug-In . SVG Version: 6.00 Build 0)  -->
<svg version="1.1" id="图层_1" xmlns="http://www.w3.org/2000/svg" xmlns:xlink="http://www.w3.org/1999/xlink" x="0px" y="0px"
	 viewBox="0 0 406.8 143.2" style="enable-background:new 0 0 406.8 143.2;" xml:space="preserve">
<style type="text/css">
	.st0{fill:#D60F00;}
	.st1{fill:#FFFFFF;}
</style>
<g>
	<path class="st0" d="M61.6,132.7L9.9,81c-5.2-5.2-5.2-13.6,0-18.8l51.7-51.7c5.2-5.2,13.6-5.2,18.8,0l51.7,51.7
		c5.2,5.2,5.2,13.6,0,18.8l-51.7,51.7C75.2,137.9,66.8,137.9,61.6,132.7z"/>
	<g>
		<path class="st1" d="M211.5,72.4c0-0.2,0-0.3-0.1-0.4c0-0.1-0.1-0.3-0.1-0.4c0-0.1-0.1-0.3-0.2-0.4c-0.1-0.1-0.1-0.3-0.2-0.4
			c-0.1-0.1-0.1-0.2-0.2-0.3c-0.1-0.1-0.2-0.2-0.3-0.4c-0.1-0.1-0.2-0.2-0.3-0.3c-0.1-0.1-0.2-0.2-0.3-0.3c-0.1-0.1-0.2-0.2-0.3-0.2
			c-0.1-0.1-0.3-0.1-0.4-0.2c-0.1-0.1-0.2-0.1-0.4-0.2c-0.1-0.1-0.3-0.1-0.4-0.1c-0.1,0-0.3-0.1-0.4-0.1c-0.2,0-0.3,0-0.5,0
			c-0.1,0-0.2,0-0.3,0h-19.6c-2.5,0-4.5,2-4.5,4.5c0,2.5,2,4.5,4.5,4.5h15.1c-0.4,3.1-1.6,5.8-3.5,7.8c-2.7,2.9-6.8,4.4-11.6,4.4
			c-10,0-18.1-8.1-18.1-18.1c0-10,8.1-18.1,18.1-18.1c5.5,0,11.8,2.6,14.1,5.9c1.4,2,4.2,2.5,6.2,1.1c2-1.4,2.5-4.2,1.1-6.2
			c-4.4-6.3-14.1-9.7-21.4-9.7c-14.9,0-27.1,12.1-27.1,27c0,14.9,12.1,27.1,27.1,27.1c7.3,0,13.7-2.6,18.1-7.3
			c4.4-4.7,6.5-11.2,5.9-18.6C211.6,72.6,211.5,72.5,211.5,72.4z"/>
		<path class="st1" d="M313.5,53.4c2.5,0,4.5-2,4.5-4.5s-2-4.5-4.5-4.5h-28.6c-2.5,0-4.5,2-4.5,4.5v45.3c0,2.5,2,4.5,4.5,4.5
			s4.5-2,4.5-4.5V76h17.3c2.5,0,4.5-2,4.5-4.5c0-2.5-2-4.5-4.5-4.5h-17.3V53.4H313.5z"/>
		<path class="st1" d="M225.9,59c-2.5,0-4.5,2-4.5,4.5v30.5c0,2.5,2,4.5,4.5,4.5s4.5-2,4.5-4.5V63.5C230.4,61,228.4,59,225.9,59z"/>
		<circle class="st1" cx="225.9" cy="51.5" r="5.3"/>
		<path class="st1" d="M261.9,88.2c-0.3,0.3-0.6,0.5-1,0.7c-0.4,0.2-1.1,0.6-2.1,0.6c-0.3,0-1-0.2-1.8-0.6c-1.4-0.8-2.7-3.9-2.6-8
			c0,0,0-0.1,0-0.1V66.5h6.7c2.5,0,4.5-2,4.5-4.5c0-2.5-2-4.5-4.5-4.5h-6.7v-9.7c0-2.5-2-4.5-4.5-4.5s-4.5,2-4.5,4.5v9.7h-3.2
			c-2.5,0-4.5,2-4.5,4.5c0,2.5,2,4.5,4.5,4.5h3.2v14.2c-0.2,7.1,2.4,13.2,6.9,15.9c2.8,1.7,5.6,1.9,6.1,1.9c0.1,0,0.1,0,0.2,0
			c2.9,0,5.2-0.9,6.6-1.7c1-0.6,1.9-1.2,2.7-2c1.8-1.7,1.9-4.6,0.2-6.4C266.5,86.6,263.7,86.5,261.9,88.2z"/>
		<path class="st1" d="M336.4,57.5c-11.3,0-20.5,9.2-20.5,20.5c0,11.3,9.2,20.5,20.5,20.5s20.5-9.2,20.5-20.5
			C356.9,66.7,347.7,57.5,336.4,57.5z M336.4,89.5c-6.3,0-11.5-5.2-11.5-11.5s5.2-11.5,11.5-11.5s11.5,5.2,11.5,11.5
			S342.7,89.5,336.4,89.5z"/>
		<path class="st1" d="M398,90.6l-11.1-12.8l10.8-12.5c1.8-2.1,1.6-5.3-0.5-7.1c-2.1-1.8-5.3-1.6-7.1,0.5l-9.8,11.4l-9.8-11.4
			c-1.8-2.1-5-2.3-7.1-0.5c-2.1,1.8-2.3,5-0.5,7.1l10.8,12.5l-11.1,12.8c-1.8,2.1-1.6,5.3,0.5,7.1c1,0.8,2.1,1.2,3.3,1.2
			c1.4,0,2.8-0.6,3.8-1.7l10.1-11.7l10.1,11.7c1,1.2,2.4,1.7,3.8,1.7c1.2,0,2.3-0.4,3.3-1.2C399.6,95.9,399.8,92.7,398,90.6z"/>
	</g>
	<path class="st1" d="M106.8,72.3l-5.3-29.1c-0.1-0.6-0.5-1.1-1.1-1.4c-0.6-0.3-1.2-0.3-1.8,0L71.9,54.5L45.2,41.8
		c-0.6-0.3-1.2-0.3-1.8,0c-0.6,0.3-0.9,0.8-1.1,1.4l-5.3,29.1c-0.1,0.3,0,0.6,0,0.9l4.2,16.3c0,0,0,0.1-0.1,0.1c0,0,0.1,0.1,0.1,0.1
		l1.2,4.8c0.1,0.5,0.4,0.9,0.9,1.2L71,113.4l0,0c0,0,0,0,0,0l0,0l0,0c0.3,0.2,0.7,0.3,1.1,0.3c0.4,0,0.8-0.1,1.1-0.3l6.4-4.1
		c0.2-0.2,0.4-0.4,0.6-0.6l20.2-12.9c0.4-0.3,0.7-0.7,0.9-1.2l1.2-4.8c0.1,0,0.1-0.1,0.2-0.1c0-0.1-0.1-0.1-0.1-0.2l4.2-16.3
		C106.8,72.9,106.8,72.6,106.8,72.3z M90.2,89.5c-0.7,0.4-1.1,1.1-1,1.9c0.3,2,0.6,4.1,0.9,6.1l-11.7,7.5l-4.1-3
		c0.6-3.5,2.3-10.1,7.2-16.1c1.3-1.6,2.8-3.1,4.4-4.4c0.6-0.5,1.2-0.9,1.9-1.4c5.1-3.6,10.4-5.1,14.5-5.6l-2.6,10.2
		C96.5,86.3,93.4,87.9,90.2,89.5z M53.7,97.6c0.3-2,0.6-4.1,0.9-6.1c0.1-0.8-0.3-1.6-1-1.9c-3.2-1.6-6.3-3.3-9.5-4.9l-2.6-10.2
		c4.1,0.5,9.6,1.9,14.9,5.7c0.7,0.5,1.3,0.9,1.9,1.4c1.6,1.3,3.1,2.8,4.4,4.4c5,6,6.7,12.7,7.2,16.1l-4.3,3.2L53.7,97.6z M69.4,79.6
		l2.1,1.3c0.3,0.2,0.8,0.2,1.2,0l2.1-1.3l2.7,4.9c-2.6,3.4-4.3,7-5.4,10.1c-1.1-3.1-2.8-6.7-5.4-10.1L69.4,79.6z M80.4,81.2
		l-6.5-11.7c-0.4-0.6-1-1-1.8-1c-0.7,0-1.4,0.4-1.7,1l-6.5,11.7c-1-1-2-1.9-3.1-2.8c-0.7-0.5-1.4-1.1-2.1-1.6
		c-4.2-2.9-8.4-4.6-12.2-5.5l25.5-12.2l25.6,12.2c-3.7,0.9-8,2.6-12.1,5.5c-0.7,0.5-1.5,1.1-2.1,1.6C82.3,79.3,81.3,80.2,80.4,81.2z
		 M76.8,56.9L98,46.7l4.1,22.3L76.8,56.9z M45.9,46.5l21.6,10.3L41.7,69.2L45.9,46.5z"/>
</g>
</svg>
